<?xml version="1.0" standalone="no"?>
<!DOCTYPE svg PUBLIC "-//W3C//DTD SVG 20010904//EN"
 "http://www.w3.org/TR/2001/REC-SVG-20010904/DTD/svg10.dtd">
<svg version="1.0" xmlns="http://www.w3.org/2000/svg"
 width="384.000000pt" height="105.000000pt" viewBox="0 0 384.000000 105.000000"
 preserveAspectRatio="xMidYMid meet">

<g transform="translate(0.000000,105.000000) scale(0.100000,-0.100000)"
fill="#000000" stroke="none">
<path d="M1604 904 l-113 -115 -58 -6 -58 -6 54 61 c29 34 57 65 62 68 5 3 14
15 19 27 6 12 -26 -17 -72 -65 l-83 -86 -100 -7 c-55 -3 -104 -11 -110 -16 -7
-7 8 -8 43 -5 28 3 75 8 102 11 28 3 50 3 50 0 0 -3 -19 -31 -42 -60 -28 -35
-61 -64 -94 -80 -60 -31 -118 -42 -129 -26 -9 16 13 41 35 41 22 0 45 26 31
34 -6 4 -29 -4 -52 -16 -23 -13 -56 -31 -73 -40 -17 -9 -41 -17 -53 -18 -19 0
-21 4 -16 40 7 54 -11 53 -102 -5 -30 -20 -30 -20 -16 0 8 11 26 33 40 49 24
27 25 28 4 17 -13 -6 -27 -20 -33 -30 -8 -16 -152 -111 -167 -111 -2 0 4 12
14 28 18 25 43 77 43 87 0 14 -32 1 -71 -28 -50 -38 -89 -61 -95 -55 -2 3 10
23 27 46 17 23 26 42 20 42 -5 0 -14 -6 -18 -13 -16 -26 -106 -87 -139 -93
-20 -4 -53 1 -85 11 l-52 18 29 21 c16 11 47 37 69 57 22 20 62 47 88 59 61
29 117 81 117 109 0 37 -29 23 -109 -53 -82 -78 -82 -78 -206 -90 -22 -2 -5
-3 37 -2 75 1 76 0 60 -18 -9 -10 -36 -31 -60 -47 l-43 -27 -42 19 c-51 23
-90 24 -107 4 -10 -13 -9 -19 6 -36 17 -19 26 -21 91 -15 51 4 84 1 114 -9 61
-22 110 -19 152 9 34 23 35 24 40 4 5 -19 7 -19 39 -2 18 9 50 30 71 47 21 16
41 27 44 24 3 -4 -11 -32 -32 -64 -33 -51 -53 -67 -164 -135 -156 -96 -239
-160 -247 -194 -23 -92 122 -8 303 174 50 51 119 111 153 133 68 44 72 45 64
24 -9 -22 2 -19 49 14 23 15 57 36 75 45 l32 17 -6 -41 c-6 -38 -5 -40 20 -40
15 0 43 7 63 15 44 18 40 19 46 -5 6 -24 52 -26 112 -5 22 8 41 15 42 15 2 0
-24 -37 -58 -82 -54 -73 -99 -147 -99 -163 0 -3 26 32 58 79 31 47 100 140
152 205 l95 120 58 1 57 0 -61 -72 c-66 -79 -115 -155 -106 -165 4 -3 34 20
67 51 34 30 69 60 80 66 17 9 18 7 13 -26 -7 -40 8 -57 42 -48 40 12 155 67
155 75 0 5 -32 -7 -72 -26 -40 -19 -83 -35 -95 -35 -21 0 -23 3 -17 40 10 61
-19 53 -115 -34 l-34 -31 29 42 c16 23 41 49 56 57 14 9 51 36 82 61 30 25 65
45 78 46 13 0 17 3 11 6 -8 3 16 37 61 88 75 83 110 137 99 149 -17 17 -46 -4
-149 -110z m111 54 c-64 -97 -195 -209 -195 -168 0 15 209 225 216 217 4 -4
-6 -26 -21 -49z m-1112 -124 c-6 -17 -91 -84 -107 -84 -5 0 12 23 39 50 48 49
80 65 68 34z m892 -99 c-51 -44 -65 -45 -28 -1 15 19 37 35 48 35 16 1 12 -6
-20 -34z m-1242 -117 c35 -14 18 -28 -33 -28 -44 0 -65 13 -56 35 7 18 31 16
89 -7z m337 -135 c0 -12 -145 -145 -205 -188 -111 -79 -161 -66 -65 17 39 33
256 178 268 178 1 0 2 -3 2 -7z"/>
<path d="M3076 867 l-77 -85 -105 -7 c-57 -4 -107 -11 -110 -17 -6 -9 29 -7
154 8 23 3 42 2 42 -3 0 -20 -89 -109 -154 -152 -91 -61 -184 -111 -207 -111
-34 0 -20 27 61 114 81 87 89 103 69 123 -9 9 -5 20 15 43 24 29 34 60 21 60
-14 0 -62 -30 -79 -49 -16 -18 -17 -23 -5 -37 12 -14 8 -21 -31 -55 -51 -43
-149 -96 -197 -105 -28 -6 -33 -4 -33 13 0 10 7 28 15 39 22 29 19 32 -32 26
-66 -7 -123 -44 -123 -80 0 -21 43 -7 96 29 43 29 44 29 35 6 -14 -36 1 -51
43 -44 53 9 155 63 201 108 23 21 46 39 52 39 31 0 17 -27 -57 -106 -78 -84
-98 -126 -67 -137 20 -7 86 21 162 67 38 24 77 47 84 51 8 5 -5 -18 -30 -51
-76 -99 -131 -185 -124 -192 4 -4 10 -2 12 4 8 24 113 169 204 284 l94 120
119 0 c66 0 117 2 114 5 -3 3 -51 6 -107 6 -55 0 -101 3 -101 7 0 4 30 40 66
80 37 40 64 75 61 78 -2 3 -39 -33 -81 -79z m-329 -84 c-14 -15 -30 -23 -34
-19 -4 4 5 19 21 32 37 32 48 21 13 -13z m-342 -139 c-32 -25 -95 -55 -95 -46
0 15 73 62 95 62 20 -1 20 -1 0 -16z"/>
<path d="M2035 842 c-35 -22 -73 -62 -58 -62 5 0 20 11 32 24 31 33 79 52 93
38 20 -20 -10 -72 -81 -143 -66 -66 -90 -103 -77 -117 10 -9 83 66 122 126 34
50 76 82 109 82 25 0 17 -24 -35 -104 -27 -42 -50 -79 -50 -83 0 -3 44 40 98
95 85 88 151 142 174 142 21 0 -37 -91 -124 -194 -32 -38 -55 -72 -53 -75 11
-10 182 211 191 247 15 55 -35 39 -127 -40 -65 -57 -70 -59 -54 -29 15 30 15
35 1 49 -14 14 -19 14 -49 0 l-34 -16 1 36 c1 32 -2 37 -24 40 -14 1 -38 -6
-55 -16z m6 -149 c-5 -10 -29 -36 -53 -58 -42 -40 -31 -22 31 48 28 31 36 35
22 10z"/>
<path d="M3077 713 c-4 -3 -7 -11 -7 -17 0 -6 5 -5 12 2 6 6 9 14 7 17 -3 3
-9 2 -12 -2z"/>
<path d="M3191 675 c-38 -34 -137 -85 -166 -85 -22 0 -18 19 11 57 14 18 20
33 15 33 -6 0 -23 -18 -38 -40 -24 -37 -25 -43 -11 -56 14 -14 22 -13 77 9 57
23 61 24 56 6 -9 -26 -3 -24 63 19 86 59 93 60 86 12 -6 -38 -5 -40 20 -40 15
0 43 7 63 15 44 18 40 19 46 -6 5 -20 11 -21 56 -16 30 4 83 23 130 47 51 26
90 40 108 38 24 -3 18 -8 -47 -43 -40 -22 -72 -44 -72 -50 1 -5 21 -10 44 -11
24 0 53 -4 66 -8 12 -4 22 -3 22 2 0 12 -35 22 -80 22 l-35 0 55 31 c30 16 62
37 70 45 13 13 13 16 0 24 -21 13 -53 4 -146 -41 -88 -43 -147 -58 -159 -40
-10 17 14 41 40 41 13 0 26 7 29 15 10 27 -21 27 -64 0 -39 -24 -111 -55 -130
-55 -5 0 -6 19 -3 41 6 42 6 42 -22 35 -15 -4 -49 -21 -74 -38 -49 -34 -47
-28 18 45 35 38 19 34 -28 -8z"/>
<path d="M1240 240 c-4 -35 -9 -45 -22 -44 -10 1 -18 -2 -18 -7 0 -15 40 -10
46 5 3 8 4 31 2 52 l-4 39 -4 -45z"/>
<path d="M1350 230 c0 -48 1 -50 28 -49 23 2 24 2 5 6 -27 5 -31 30 -5 36 16
4 16 5 0 6 -27 2 -23 39 5 44 19 4 18 4 -5 6 -27 1 -28 -1 -28 -49z"/>
<path d="M1496 240 c7 -50 20 -73 29 -47 16 52 18 53 28 20 5 -18 13 -33 17
-33 4 0 12 22 17 50 6 27 6 47 1 44 -4 -3 -8 -16 -8 -29 0 -39 -17 -38 -25 1
-7 41 -15 38 -31 -14 -10 -32 -12 -34 -14 -12 -1 14 -6 34 -11 45 -6 14 -7 6
-3 -25z"/>
<path d="M1690 230 c0 -48 1 -50 28 -49 23 2 24 2 5 6 -27 5 -31 30 -5 36 16
4 16 5 0 6 -27 2 -23 39 5 44 19 4 18 4 -5 6 -27 1 -28 -1 -28 -49z"/>
<path d="M1842 233 c-2 -52 -1 -53 26 -52 22 1 23 2 5 6 -18 4 -23 12 -26 51
l-3 47 -2 -52z"/>
<path d="M1980 230 l0 -50 33 1 c30 2 30 2 5 6 -34 5 -38 33 -5 34 l22 0 -22
9 c-32 13 -29 38 5 43 25 4 25 4 -5 6 l-33 1 0 -50z"/>
<path d="M2131 228 c1 -29 4 -43 6 -30 5 27 19 28 33 2 6 -11 15 -20 21 -20 6
0 7 5 2 13 -4 6 -8 28 -8 47 0 31 -3 35 -27 38 -28 3 -28 3 -27 -50z m47 19
c2 -12 -3 -17 -17 -17 -15 0 -21 6 -21 21 0 25 33 22 38 -4z"/>
<path d="M2291 264 c0 -11 3 -14 6 -6 3 7 2 16 -1 19 -3 4 -6 -2 -5 -13z"/>
<path d="M2401 266 c-9 -11 -8 -18 4 -30 9 -9 21 -16 26 -16 5 0 9 -7 9 -16 0
-12 -6 -15 -26 -10 -17 5 -23 3 -19 -4 9 -15 52 -12 59 5 3 9 -4 21 -19 31
-31 20 -34 49 -5 41 11 -3 18 -1 14 4 -8 13 -30 11 -43 -5z"/>
</g>
</svg>
